osimModel_states
nRows=41
nColumns=17

# SIMM Motion File Header:
name osimModel_states
datacolumns 17
datarows 41
otherdata 1
range 0.00000000 0.17638824
endheader
time	blockToGround_xTranslation	blockToGround_yTranslation	blockToGround_zTranslation	blockToGround_xRotation	blockToGround_yRotation	blockToGround_zRotation	blockToGround_xTranslation_u	blockToGround_yTranslation_u	blockToGround_zTranslation_u	blockToGround_xRotation_u	blockToGround_yRotation_u	blockToGround_zRotation_u	muscle1.activation	muscle1.fiber_length	muscle2.activation	muscle2.fiber_length
      0.00000000	      0.00000000	      0.00000000	      0.00000000	      0.00000000	      0.00000000	      0.00000000	      0.00000000	      0.00000000	      0.47123890	      0.00000000	      0.00000000	      0.00000000	      0.01000000	      0.20000000	      0.01000000	      0.20000000
      0.00425948	      0.00000000	     -0.00008224	      0.00200555	      0.00072166	     -0.00000000	     -0.00000001	      0.00000000	     -0.03569278	      0.46971852	      0.64869086	     -0.00001774	     -0.00007101	      0.00898989	      0.19742935	      0.00903423	      0.19742790
      0.00952302	      0.00000000	     -0.00029897	      0.00445119	      0.01531187	     -0.00000155	     -0.00000620	      0.00000004	     -0.03726180	      0.45720971	      5.81953602	     -0.00098850	     -0.00394793	      0.00788145	      0.19458168	      0.01013867	      0.19451997
      0.01478656	      0.00000000	     -0.00038938	      0.00679737	      0.06930349	     -0.00001961	     -0.00007791	      0.00000070	      0.00675233	      0.43331261	     14.82423655	     -0.00729400	     -0.02904626	      0.00690968	      0.19204134	      0.02393443	      0.19122161
      0.02005010	      0.00000001	     -0.00024327	      0.00901655	      0.16555344	     -0.00009975	     -0.00039418	      0.00000336	      0.04236829	      0.41151201	     20.56935689	     -0.02517549	     -0.10037956	      0.00605773	      0.18976044	      0.05001828	      0.18710030
      0.02531364	      0.00000004	     -0.00003840	      0.01115312	      0.27046565	     -0.00029766	     -0.00117379	      0.00000652	      0.02834736	      0.40210382	     18.49177694	     -0.04764055	     -0.19140637	      0.00531082	      0.18770057	      0.07884006	      0.18248082
      0.03057718	      0.00000008	      0.00002145	      0.01325794	      0.36017946	     -0.00060549	     -0.00238542	      0.00000902	     -0.00605910	      0.39778347	     15.59604791	     -0.06721182	     -0.27154468	      0.00465601	      0.18583041	      0.10371474	      0.17764387
      0.03597110	      0.00000014	     -0.00009134	      0.01538787	      0.43409330	     -0.00103672	     -0.00408278	      0.00001440	     -0.03237087	      0.39112102	     11.45561583	     -0.08868397	     -0.36101817	      0.00406865	      0.18408374	      0.12648968	      0.17257529
      0.04136503	      0.00000025	     -0.00027081	      0.01746307	      0.48049751	     -0.00160281	     -0.00632149	      0.00002913	     -0.02800636	      0.37679961	      5.61607778	     -0.11416451	     -0.46974085	      0.00355538	      0.18248597	      0.15158467	      0.16740645
      0.04675895	      0.00000048	     -0.00033688	      0.01943860	      0.49503344	     -0.00229522	     -0.00908464	      0.00005586	      0.00603936	      0.35507018	     -0.15122742	     -0.13200235	     -0.55005747	      0.00310686	      0.18101759	      0.18447475	      0.16208583
      0.05113254	      0.00000077	     -0.00025099	      0.02095323	      0.48395310	     -0.00289269	     -0.01150022	      0.00007813	      0.03061599	      0.33820961	     -4.98524637	     -0.12900109	     -0.54587539	      0.00278507	      0.17991055	      0.21713427	      0.15761240
      0.05550612	      0.00000115	     -0.00010187	      0.02240516	      0.45139574	     -0.00344962	     -0.01379418	      0.00009250	      0.03346013	      0.32677489	     -9.82270736	     -0.11543022	     -0.49829126	      0.00249661	      0.17887013	      0.25180030	      0.15297566
      0.06075706	      0.00000166	      0.00002142	      0.02410031	      0.38757798	     -0.00401260	     -0.01617771	      0.00010008	      0.01005677	      0.31974075	    -14.14174233	     -0.09059589	     -0.40366527	      0.00218947	      0.17769966	      0.29129483	      0.14720298
      0.06600800	      0.00000219	     -0.00001526	      0.02576779	      0.30529642	     -0.00440544	     -0.01792648	      0.00010311	     -0.02399421	      0.31536564	    -17.15688932	     -0.05275736	     -0.25426201	      0.00192012	      0.17660566	      0.32666548	      0.14123735
      0.06994494	      0.00000260	     -0.00015037	      0.02700051	      0.23292416	     -0.00453334	     -0.01859566	      0.00010387	     -0.04205516	      0.31022308	    -19.56740754	     -0.00463473	     -0.06196656	      0.00174014	      0.17583034	      0.35161268	      0.13665558
      0.07388188	      0.00000300	     -0.00031166	      0.02820178	      0.15510183	     -0.00439741	     -0.01822618	      0.00009655	     -0.03466683	      0.29873237	    -19.13038503	      0.07560691	      0.25954682	      0.00157703	      0.17508993	      0.37810008	      0.13198275
      0.07781881	      0.00000333	     -0.00038922	      0.02934419	      0.08820751	     -0.00393128	     -0.01655022	      0.00006925	     -0.00221180	      0.28099277	    -14.32663891	      0.15904257	      0.58966990	      0.00142920	      0.17438154	      0.40963833	      0.12720340
      0.08266776	      0.00000354	     -0.00029562	      0.03065191	      0.03743142	     -0.00292473	     -0.01279079	      0.00001352	      0.03703234	      0.25933720	     -6.77965382	      0.25151892	      0.94860175	      0.00126604	      0.17354921	      0.45615964	      0.12113294
      0.08751671	      0.00000349	     -0.00009681	      0.03187587	      0.01691278	     -0.00152730	     -0.00751359	     -0.00002928	      0.03700613	      0.24748280	     -2.43296277	      0.31856570	      1.20814242	      0.00112150	      0.17275718	      0.50555463	      0.11483306
      0.09354627	      0.00000327	     -0.00001277	      0.03335830	      0.00506236	      0.00051907	      0.00026279	     -0.00003914	     -0.01309307	      0.24522686	     -1.84800974	      0.34877546	      1.32824100	      0.00096457	      0.17182283	      0.56054587	      0.10670319
      0.09846039	      0.00000304	     -0.00016437	      0.03455561	     -0.00085381	      0.00218731	      0.00659715	     -0.00005954	     -0.04242088	      0.24052728	      0.12784796	      0.32239670	      1.21694811	      0.00085306	      0.17109867	      0.59990908	      0.09988232
      0.10337451	      0.00000261	     -0.00035018	      0.03570247	      0.01467757	      0.00361503	      0.01191223	     -0.00011826	     -0.02568170	      0.22436165	      6.91296502	      0.25157645	      0.91772917	      0.00075444	      0.17040481	      0.64191361	      0.09290439
      0.10814574	      0.00000191	     -0.00037120	      0.03671993	      0.06831649	      0.00457975	      0.01530852	     -0.00016990	      0.01765619	      0.20194894	     15.40143617	      0.14675026	      0.48737697	      0.00066961	      0.16975759	      0.69094184	      0.08595453
      0.11291696	      0.00000107	     -0.00021208	      0.03763717	      0.15517457	      0.00497901	      0.01641846	     -0.00017472	      0.04273948	      0.18411020	     19.93005407	      0.01683217	     -0.03348849	      0.00059432	      0.16913424	      0.74647753	      0.07879843
      0.11549966	      0.00000063	     -0.00010521	      0.03810544	      0.20633750	      0.00492386	      0.01594024	     -0.00016470	      0.03788118	      0.17904128	     19.38488212	     -0.05527045	     -0.32553817	      0.00055716	      0.16880608	      0.77678772	      0.07483521
      0.11808236	      0.00000022	     -0.00002453	      0.03856400	      0.25462530	      0.00471086	      0.01482909	     -0.00015505	      0.02363813	      0.17630375	     17.99794615	     -0.10288938	     -0.52257326	      0.00052232	      0.16848407	      0.80592036	      0.07081357
      0.12145923	     -0.00000028	      0.00001697	      0.03915503	      0.31250890	      0.00427351	      0.01273294	     -0.00014305	      0.00070753	      0.17379621	     16.28865270	     -0.14949970	     -0.71872248	      0.00048004	      0.16807187	      0.84187673	      0.06547745
      0.12547813	     -0.00000082	     -0.00003195	      0.03984674	      0.37330801	      0.00355063	      0.00940981	     -0.00012069	     -0.02379253	      0.17089471	     13.80658544	     -0.19863147	     -0.93196704	      0.00043415	      0.16759367	      0.88230078	      0.05927457
      0.12818121	     -0.00000111	     -0.00011152	      0.04031272	      0.40755493	      0.00295317	      0.00670513	     -0.00009319	     -0.03386851	      0.17561212	     11.42906983	     -0.23052014	     -1.07598042	      0.00040578	      0.16727920	      0.90725845	      0.05694368
      0.13088430	     -0.00000131	     -0.00020688	      0.04080584	      0.43470137	      0.00226116	      0.00359228	     -0.00005040	     -0.03499683	      0.19021903	      8.61760488	     -0.26367824	     -1.22781423	      0.00037927	      0.16697022	      0.92703033	      0.05593613
      0.13456558	     -0.00000135	     -0.00031478	      0.04155011	      0.45903279	      0.00118946	     -0.00122284	      0.00002908	     -0.02084989	      0.21412172	      4.63647609	     -0.29634574	     -1.38557565	      0.00034592	      0.16655788	      0.94331318	      0.05503694
      0.13946312	     -0.00000092	     -0.00033358	      0.04267264	      0.46997612	     -0.00038388	     -0.00833417	      0.00014474	      0.01385871	      0.24385994	     -0.16138052	     -0.31615362	     -1.49778294	      0.00030606	      0.16602366	      0.95013658	      0.05393881
      0.14359026	     -0.00000016	     -0.00022846	      0.04373100	      0.46015345	     -0.00170650	     -0.01443222	      0.00021632	      0.03407047	      0.26937870	     -4.68142830	     -0.29547566	     -1.44098148	      0.00027605	      0.16558550	      0.94915854	      0.05294936
      0.14771739	      0.00000082	     -0.00008294	      0.04490037	      0.43134113	     -0.00288989	     -0.02009363	      0.00025348	      0.03272595	      0.29778287	     -9.19095678	     -0.25337328	     -1.29309375	      0.00024899	      0.16515774	      0.94556181	      0.05186394
      0.15184453	      0.00000190	      0.00001668	      0.04619143	      0.38589417	     -0.00387290	     -0.02506022	      0.00026888	      0.01342926	      0.32792003	    -12.60716775	     -0.20498168	     -1.11293840	      0.00022458	      0.16473988	      0.93882263	      0.05066903
      0.15698016	      0.00000330	     -0.00000010	      0.04796951	      0.31315916	     -0.00476140	     -0.03002068	      0.00027686	     -0.02026853	      0.36387798	    -15.64097760	     -0.12522914	     -0.80467036	      0.00019752	      0.16423304	      0.92580524	      0.04902153
      0.16132857	      0.00000452	     -0.00014124	      0.04960959	      0.23920724	     -0.00511465	     -0.03271493	      0.00028054	     -0.04182143	      0.38927036	    -18.36436798	     -0.01987018	     -0.38959676	      0.00017717	      0.16381474	      0.91118640	      0.04749401
      0.16404688	      0.00000528	     -0.00025760	      0.05068374	      0.18806621	     -0.00502594	     -0.03319872	      0.00027805	     -0.04125326	      0.40023626	    -18.88731330	      0.09079643	      0.05111176	      0.00016553	      0.16355809	      0.90086048	      0.04648636
      0.16676519	      0.00000602	     -0.00035192	      0.05178129	      0.13873450	     -0.00461894	     -0.03243167	      0.00026436	     -0.02600519	      0.40660690	    -17.04703671	      0.20704287	      0.51344155	      0.00015466	      0.16330503	      0.89014591	      0.04544854
      0.17157672	      0.00000717	     -0.00037252	      0.05375133	      0.07214811	     -0.00313565	     -0.02806935	      0.00020736	      0.01821744	      0.41172177	    -10.23335116	      0.40267281	      1.28466687	      0.00013713	      0.16286561	      0.87130042	      0.04356807
      0.17638824	      0.00000799	     -0.00020870	      0.05574816	      0.03910659	     -0.00078612	     -0.02030431	      0.00013938	      0.04333789	      0.41960569	     -4.03873925	      0.56309481	      1.91310604	      0.00012159	      0.16243661	      0.85273547	      0.04165688
